<svg width="24" height="24" viewBox="0 0 24 24" fill="none" xmlns="http://www.w3.org/2000/svg">
<path d="M10.7 6.7252C10.9 6.9252 10.996 7.16686 10.988 7.4502C10.98 7.73353 10.8757 7.9752 10.675 8.1752L7.85 11.0002L19 11.0002C19.2833 11.0002 19.521 11.0962 19.713 11.2882C19.905 11.4802 20.0007 11.7175 20 12.0002C20 12.2835 19.904 12.5212 19.712 12.7132C19.52 12.9052 19.2827 13.0009 19 13.0002L7.85 13.0002L10.7 15.8502C10.9 16.0502 11 16.2879 11 16.5632C11 16.8385 10.9 17.0759 10.7 17.2752C10.5 17.4752 10.2623 17.5752 9.987 17.5752C9.71166 17.5752 9.47433 17.4752 9.275 17.2752L4.7 12.7002C4.6 12.6002 4.529 12.4919 4.487 12.3752C4.445 12.2585 4.42433 12.1335 4.425 12.0002C4.425 11.8669 4.446 11.7419 4.488 11.6252C4.53 11.5085 4.60066 11.4002 4.7 11.3002L9.3 6.7002C9.48333 6.51686 9.71233 6.4252 9.987 6.4252C10.2617 6.4252 10.4993 6.5252 10.7 6.7252Z" fill="white"/>
</svg>
