<svg width="32" height="32" viewBox="0 0 32 32" fill="none" xmlns="http://www.w3.org/2000/svg">
<path d="M7.95898 9.59967V22.2463C7.95898 24.061 7.95898 24.969 8.22959 25.5237C8.4744 26.0256 8.86992 26.4374 9.36025 26.7011C9.85059 26.9647 10.411 27.0669 10.9622 26.993C11.5724 26.913 12.3232 26.409 13.8247 25.4023L13.8287 25.3997C14.4243 24.9997 14.7215 24.801 15.0332 24.6903C15.6053 24.4871 16.2293 24.4871 16.8014 24.6903C17.1131 24.801 17.4116 25.001 18.0098 25.4023C19.5128 26.409 20.2649 26.9117 20.8751 26.993C21.4261 27.0666 21.9861 26.9643 22.4762 26.7007C22.9663 26.437 23.3616 26.0253 23.6063 25.5237C23.8769 24.969 23.8769 24.061 23.8769 22.2463V9.59567C23.8769 8.10501 23.8769 7.35834 23.5878 6.78901C23.333 6.28712 22.9267 5.87918 22.4271 5.62367C21.8607 5.33301 21.1178 5.33301 19.6321 5.33301H12.2038C10.7181 5.33301 9.97526 5.33301 9.40752 5.62367C8.90829 5.87926 8.50243 6.28721 8.24816 6.78901C7.95898 7.35967 7.95898 8.10634 7.95898 9.59967Z" fill="#FFA931" fill-opacity="0.5" stroke="#222222" stroke-width="1.5" stroke-linecap="round" stroke-linejoin="round"/>
</svg>
