<svg width="14" height="19" viewBox="0 0 14 19" fill="none" xmlns="http://www.w3.org/2000/svg">
<path d="M1 4.2V13.685C1 15.046 1 15.727 1.204 16.143C1.38855 16.5194 1.68672 16.8283 2.05637 17.0261C2.42602 17.2238 2.84846 17.3004 3.264 17.245C3.724 17.185 4.29 16.807 5.422 16.052L5.425 16.05C5.874 15.75 6.098 15.601 6.333 15.518C6.76426 15.3656 7.23474 15.3656 7.666 15.518C7.901 15.601 8.126 15.751 8.577 16.052C9.71 16.807 10.277 17.184 10.737 17.245C11.1524 17.3002 11.5746 17.2235 11.944 17.0257C12.3135 16.828 12.6115 16.5192 12.796 16.143C13 15.727 13 15.046 13 13.685V4.197C13 3.079 13 2.519 12.782 2.092C12.5899 1.71558 12.2836 1.40963 11.907 1.218C11.48 1 10.92 1 9.8 1H4.2C3.08 1 2.52 1 2.092 1.218C1.71565 1.40969 1.40969 1.71565 1.218 2.092C1 2.52 1 3.08 1 4.2Z" fill="#FF6666" stroke="#FF6666" stroke-width="1.5" stroke-linecap="round" stroke-linejoin="round"/>
</svg>
