<svg width="32" height="32" viewBox="0 0 32 32" fill="none" xmlns="http://www.w3.org/2000/svg">
<path d="M24.7619 26.6668H14.1499V19.5557H12.3813V26.6668H7.0753V19.5557H5.30664V26.6668C5.30664 27.1383 5.49298 27.5905 5.82467 27.9239C6.15636 28.2573 6.60622 28.4446 7.0753 28.4446H24.7619C25.231 28.4446 25.6809 28.2573 26.0125 27.9239C26.3442 27.5905 26.5306 27.1383 26.5306 26.6668V19.5557H24.7619V26.6668Z" fill="#222222"/>
<path d="M29.8824 11.7957L26.2743 4.54233C26.1279 4.24614 25.9022 3.99688 25.6226 3.82258C25.3429 3.64828 25.0204 3.55584 24.6914 3.55566H7.14627C6.81723 3.55584 6.49476 3.64828 6.21511 3.82258C5.93547 3.99688 5.70975 4.24614 5.56332 4.54233L1.95525 11.7957C1.83206 12.0441 1.76846 12.3181 1.76954 12.5957V15.3334C1.76874 15.7488 1.91266 16.1514 2.17634 16.4712C2.56602 16.9202 3.04731 17.2796 3.58749 17.5251C4.12767 17.7705 4.71408 17.8961 5.30687 17.8934C6.27412 17.895 7.21188 17.5588 7.95986 16.9423C8.70783 17.5591 9.64538 17.8962 10.6128 17.8962C11.5803 17.8962 12.5179 17.5591 13.2658 16.9423C14.0138 17.5591 14.9514 17.8962 15.9188 17.8962C16.8863 17.8962 17.8238 17.5591 18.5718 16.9423C19.3198 17.5591 20.2573 17.8962 21.2248 17.8962C22.1923 17.8962 23.1298 17.5591 23.8778 16.9423C24.7128 17.6314 25.781 17.9683 26.8579 17.8821C27.9348 17.7959 28.9366 17.2933 29.6525 16.4801C29.9193 16.1615 30.0664 15.7588 30.0681 15.3423V12.5957C30.0692 12.3181 30.0056 12.0441 29.8824 11.7957ZM26.5308 16.1157C26.1531 16.1148 25.781 16.0231 25.4457 15.8484C25.1104 15.6737 24.8214 15.4209 24.603 15.1112L23.8778 14.1157L23.1615 15.1112C22.9389 15.4162 22.648 15.6642 22.3123 15.8351C21.9766 16.0061 21.6055 16.0951 21.2292 16.0951C20.8529 16.0951 20.4819 16.0061 20.1462 15.8351C19.8105 15.6642 19.5196 15.4162 19.297 15.1112L18.5718 14.1157L17.8555 15.1112C17.6329 15.4162 17.342 15.6642 17.0063 15.8351C16.6706 16.0061 16.2996 16.0951 15.9233 16.0951C15.5469 16.0951 15.1759 16.0061 14.8402 15.8351C14.5045 15.6642 14.2136 15.4162 13.991 15.1112L13.2658 14.1157L12.5495 15.1112C12.3269 15.4162 12.036 15.6642 11.7003 15.8351C11.3646 16.0061 10.9936 16.0951 10.6173 16.0951C10.241 16.0951 9.86993 16.0061 9.53424 15.8351C9.19854 15.6642 8.90761 15.4162 8.68501 15.1112L7.95986 14.1157L7.23471 15.1112C7.01625 15.4209 6.72731 15.6737 6.39196 15.8484C6.05662 16.0231 5.68458 16.1148 5.30687 16.1157C4.97359 16.1197 4.64332 16.052 4.33825 15.9171C4.03317 15.7822 3.76038 15.5832 3.53821 15.3334V12.5957L7.14627 5.33344H24.6914L28.2995 12.5868V15.3068C28.0786 15.56 27.8067 15.7631 27.5017 15.9026C27.1968 16.042 26.8658 16.1147 26.5308 16.1157Z" fill="#222222"/>
<path d="M9.71286 11.511C9.73205 11.3576 10.3217 11.1618 10.4564 11.0436C10.5629 10.9502 11.2124 10.43 11.0584 10.2363C10.8971 10.0336 10.3168 9.86348 10.074 9.89641C9.66141 9.95235 9.43917 10.5277 9.38357 10.8737C9.28331 11.4975 9.65945 11.9462 10.2936 11.9147C10.7557 11.8917 11.4239 11.5905 11.1398 11.0224C10.9443 10.6314 10.3918 10.4593 9.98905 10.4204C9.56711 10.3797 8.60743 10.7087 8.27529 11.0153C8.075 11.2002 8.22218 11.7505 8.35319 11.9359C8.55303 12.2188 8.96398 12.2478 9.23485 12.4316C9.5092 12.6178 9.22266 13.2191 9.40835 13.4939C9.5183 13.6566 9.76751 13.6288 9.7766 13.8834C9.78243 14.0465 9.82759 14.2318 9.99967 14.3083C10.0938 14.3501 10.2381 14.4878 10.3219 14.503C10.4642 14.5289 10.5876 14.562 10.7326 14.5703C10.8583 14.5775 10.9488 14.6883 11.0725 14.6801C11.3646 14.6606 11.6971 14.4782 11.9365 14.3224C12.3895 14.0275 12.8064 13.69 13.0342 13.1965C13.2565 12.7148 13.745 12.7132 14.107 13.1115C14.3847 13.4169 14.497 13.721 14.8435 13.9648C15.1233 14.1617 15.5413 14.3898 15.8633 14.4889C16.2442 14.606 16.4922 14.273 16.8016 14.1383C17.2768 13.9314 17.6524 13.628 18.1188 13.4018C18.487 13.2233 18.6916 12.9691 19.1315 12.9203C19.6508 12.8626 19.807 13.594 20.0769 13.9011C20.3207 14.1785 20.6197 14.6949 21.0081 14.7473C21.3442 14.7928 21.7802 14.503 22.0491 14.3154C22.3241 14.1234 22.66 13.8131 22.8529 13.5399C23.2633 12.9585 23.8568 12.7999 24.5666 12.7999C25.1714 12.7999 25.2612 13.6163 25.5899 13.9896C25.7485 14.1696 26.1647 14.6641 26.4256 14.6978C27.0464 14.7779 27.0487 13.909 27.0487 13.4833C27.0487 13.0112 26.8153 12.634 26.7938 12.1767C26.7717 11.7072 26.3839 11.3878 26.2698 10.9232C26.1353 10.3758 26.0219 9.84483 25.7599 9.34404C25.4854 8.81947 25.1112 8.29856 24.7614 7.82148C24.2428 7.1144 23.6794 6.47004 22.7537 6.41932C22.3555 6.3975 21.5406 6.29482 21.2949 6.70966C21.0808 7.07123 21.1521 7.70584 21.1922 8.05518C21.3038 9.02617 21.5805 10.0001 22.1836 10.7887C22.4405 11.1245 22.8884 11.4984 23.2742 11.6881C23.4167 11.7581 24.2383 12.0727 24.1276 11.55C23.9957 10.9271 23.0769 10.2496 22.4882 10.1018C21.756 9.91792 20.9107 10.1299 20.2362 10.4134C20.2082 10.4251 18.802 11.1707 18.9261 11.2844C18.9837 11.3373 19.2167 11.3535 19.2306 11.3552C19.7246 11.417 20.2223 11.4494 20.7177 11.4969C21.2699 11.5497 21.8389 11.7043 22.3926 11.7128C22.9059 11.7207 22.8853 10.6327 22.9378 10.3248C22.9728 10.1199 23.3445 8.93472 23.1184 8.69252C22.948 8.50993 22.4625 8.53493 22.2545 8.51548C21.3901 8.4347 20.5226 8.45175 19.6555 8.45175C18.8765 8.45175 18.0975 8.45175 17.3186 8.45175C16.8908 8.45175 16.7846 8.35182 16.4333 8.07642C15.2442 7.14403 13.976 6.92211 12.4889 6.92211C11.245 6.92211 9.90052 7.13249 8.67186 6.83005C8.53268 6.79579 8.41341 6.74252 8.26821 6.73091C7.9239 6.70336 8.96037 6.77059 9.29859 6.84067C9.94647 6.97492 10.5153 7.16708 11.1858 7.17705C12.2617 7.19305 13.3391 7.17705 14.4151 7.17705C15.8462 7.17705 17.3502 7.30418 18.7632 7.04958C19.1184 6.98558 19.4507 6.92211 19.8113 6.92211C20.0331 6.92211 19.3875 6.79079 19.1739 6.73091C17.225 6.18448 15.0498 6.32788 13.105 6.79464C11.8204 7.10294 10.4365 7.30452 9.11447 7.30452C8.72329 7.30452 7.5677 7.15536 7.95662 7.11332C8.10791 7.09696 8.55708 7.14076 8.64708 6.97877C8.70623 6.87228 8.43592 6.74008 8.36027 6.73091C7.36102 6.60979 6.7755 7.53772 6.47655 8.3951C6.36703 8.7092 6.32556 9.03477 6.25702 9.3582C6.14489 9.88731 5.85808 10.3162 5.648 10.8064C5.39576 11.395 5.14499 11.9224 4.81236 12.4741C4.59225 12.8392 4.41584 13.1981 4.29894 13.6072C4.20658 13.9304 4.14027 14.4671 4.41579 14.719C5.123 15.3656 5.9249 14.722 6.48363 14.2375C7.43898 13.4089 7.8178 12.2814 8.27175 11.1392C8.37139 10.8885 8.65707 10.4167 8.35319 10.208C8.14975 10.0683 7.42151 9.90023 7.66627 9.93181C10.0009 10.2331 12.3618 9.90325 14.6913 10.1655C15.3593 10.2407 16.031 10.4372 16.6954 10.5515C16.7954 10.5687 17.0199 10.644 16.9503 10.7179C16.5688 11.1232 15.9747 11.411 15.5269 11.7376C15.2838 11.9149 14.8749 12.0753 15.2932 12.159C15.8343 12.2672 16.3512 12.5386 16.9078 12.3183C17.5768 12.0536 17.8062 11.5701 17.9559 10.9339C18.0718 10.4414 18.3241 10.3296 18.6995 10.1089" stroke="#FFA931" stroke-opacity="0.5" stroke-width="3" stroke-linecap="round"/>
</svg>
