<svg id="Layer_1" data-name="Layer 1" xmlns="http://www.w3.org/2000/svg" version="1.1" viewBox="0 0 1080 1080">
  <defs>
    <style>
      .cls-1 {
        display: none;
      }

      .cls-1, .cls-2, .cls-3, .cls-4 {
        stroke-width: 0px;
      }

      .cls-1, .cls-4 {
        fill: #643f2a;
      }

      .cls-2 {
        fill: #65402b;
      }

      .cls-3 {
        fill: #fff;
      }
    </style>
  </defs>

  <path class="cls-1" d="M504,1003H80.3V80.3h922.4v922.7h-498.7M419.1,302.6c-26.2,21.1-48,46.1-65.8,74.6-9.7,15.5-17.7,31.9-22,49.5-9,37.1-5.2,73.7,6.4,109.8,12.2,38.1,31.4,72.6,53.3,105.7,37.1,56.2,80.2,107.2,131.8,150.7,11.2,9.4,22.7,18.5,34.5,27.3,11.4,8.5,21.7,8.8,31.3,1.4,3.2-2.5,6-5.8,8.3-9.2,26.9-41.6,54.3-83,80.4-125.2,29.4-47.6,53.3-97.9,69-151.7,11.2-38.5,14.8-77.4,5.6-117-17.3-74.9-77.5-147.2-173-159.8-58.9-7.7-112.4,6.4-159.9,43.9Z"/>
  <circle class="cls-4" cx="540" cy="540" r="472"/>
  <path class="cls-3" d="M419.4,302.4c47.2-37.3,100.7-51.4,159.6-43.7,95.5,12.6,155.7,84.9,173,159.8,9.1,39.5,5.6,78.5-5.6,117-15.7,53.9-39.6,104.2-69,151.7-26.1,42.2-53.5,83.5-80.4,125.2-2.2,3.4-5,6.7-8.3,9.2-9.6,7.4-19.8,7.1-31.3-1.4-11.8-8.7-23.3-17.8-34.5-27.3-51.7-43.4-94.7-94.5-131.8-150.7-21.9-33.1-41.1-67.6-53.3-105.7-11.6-36.1-15.3-72.7-6.4-109.8,4.3-17.7,12.3-34.1,22-49.5,17.8-28.5,39.6-53.5,66.1-74.8M592.7,430.8c-14.8-13.2-32.4-16.8-51.2-12.9-29.9,6.1-35,16.7-35.1,38.2-.1,21,7.3,34.9,25.3,41.4,9.6,3.4,19.9,5.7,30,6.7,21.2,2,33.9-7,40.7-27.3,4.6-13.6,6.6-26.9-3.6-39.2-1.8-2.2-3.7-4.3-6.1-6.9Z"/>
  <path class="cls-2" d="M587.2,426.1c2.4,2.7,4.6,5.1,6.7,7.6,11.7,14,9.4,29.4,4.1,45-7.9,23.3-22.5,33.6-46.8,31.3-11.7-1.1-23.5-3.7-34.5-7.7-20.7-7.4-29.2-23.5-29.1-47.5.1-24.6,6-36.9,40.3-43.8,21.7-4.4,41.8-.3,59.2,15.1Z"/>
</svg>