<svg width="24" height="24" viewBox="0 0 23 24" fill="#676767" xmlns="http://www.w3.org/2000/svg">
<path d="M11.5003 8.20085C9.19824 8.20085 7.33366 10.0654 7.33366 12.3675C7.33366 14.6696 9.19824 16.5342 11.5003 16.5342C13.8024 16.5342 15.667 14.6696 15.667 12.3675C15.667 10.0654 13.8024 8.20085 11.5003 8.20085ZM20.8128 11.3258C20.5769 9.21347 19.6297 7.24412 18.1267 5.74115C16.6237 4.23819 14.6544 3.29096 12.542 3.05501V0.90918H10.4587V3.05501C8.34629 3.29096 6.37693 4.23819 4.87397 5.74115C3.371 7.24412 2.42378 9.21347 2.18783 11.3258H0.0419922V13.4092H2.18783C2.42378 15.5216 3.371 17.4909 4.87397 18.9939C6.37693 20.4968 8.34629 21.4441 10.4587 21.68V23.8258H12.542V21.68C14.6544 21.4441 16.6237 20.4968 18.1267 18.9939C19.6297 17.4909 20.5769 15.5216 20.8128 13.4092H22.9587V11.3258H20.8128ZM11.5003 19.6592C7.46908 19.6592 4.20866 16.3988 4.20866 12.3675C4.20866 8.33626 7.46908 5.07585 11.5003 5.07585C15.5316 5.07585 18.792 8.33626 18.792 12.3675C18.792 16.3988 15.5316 19.6592 11.5003 19.6592Z" fill="#676767"/>
</svg>
