<svg width="20" height="22" viewBox="0 0 20 22" fill="none" xmlns="http://www.w3.org/2000/svg">
<path d="M4.16699 8.85342C4.16699 13.0879 7.70366 16.5893 9.26949 17.9315C9.49449 18.1235 9.60699 18.2213 9.77449 18.2701C9.90449 18.3085 10.0962 18.3085 10.2262 18.2701C10.3937 18.2213 10.5062 18.1244 10.7312 17.9315C12.297 16.5893 15.8337 13.0879 15.8337 8.85342C15.8329 8.0584 15.6816 7.27143 15.3883 6.53811C15.0951 5.8048 14.6658 5.13972 14.1253 4.58142C13.0262 3.44603 11.5441 2.81011 10.0003 2.81153C8.45652 2.81011 6.97441 3.44603 5.87533 4.58142C5.33484 5.13969 4.90553 5.80477 4.61228 6.53809C4.31903 7.27141 4.16768 8.05839 4.16699 8.85342Z" stroke="black" stroke-width="1.5" stroke-linecap="round" stroke-linejoin="round"/>
<path d="M8.33398 8.04819C8.33398 8.51111 8.50958 8.95508 8.82214 9.28241C9.1347 9.60975 9.55862 9.79365 10.0007 9.79365C10.4427 9.79365 10.8666 9.60975 11.1792 9.28241C11.4917 8.95508 11.6673 8.51111 11.6673 8.04819C11.6673 7.58527 11.4917 7.1413 11.1792 6.81397C10.8666 6.48663 10.4427 6.30273 10.0007 6.30273C9.55862 6.30273 9.1347 6.48663 8.82214 6.81397C8.50958 7.1413 8.33398 7.58527 8.33398 8.04819Z" stroke="black" stroke-width="1.5" stroke-linecap="round" stroke-linejoin="round"/>
</svg>
