<svg width="8" height="13" viewBox="0 0 8 13" fill="none" xmlns="http://www.w3.org/2000/svg">
<path d="M7.61882 6.50033C7.61882 6.63921 7.59277 6.77359 7.54069 6.90345C7.48861 7.03401 7.41916 7.14269 7.33236 7.22949L2.54069 12.0212C2.34972 12.2121 2.10666 12.3076 1.81152 12.3076C1.51638 12.3076 1.27333 12.2121 1.08236 12.0212C0.891384 11.8302 0.795898 11.5871 0.795898 11.292C0.795898 10.9969 0.891384 10.7538 1.08236 10.5628L5.14486 6.50033L1.08236 2.43783C0.891384 2.24685 0.795898 2.0038 0.795898 1.70866C0.795898 1.41352 0.891384 1.17047 1.08236 0.979494C1.27333 0.788521 1.51638 0.693034 1.81152 0.693034C2.10666 0.693034 2.34972 0.788521 2.54069 0.979494L7.33236 5.77116C7.43652 5.87533 7.51014 5.98817 7.55319 6.1097C7.59694 6.23123 7.61882 6.36144 7.61882 6.50033Z" fill="#B9B9B9"/>
</svg>
