<svg width="32" height="32" viewBox="0 0 32 32" fill="none" xmlns="http://www.w3.org/2000/svg">
<path d="M22.8373 25.776C21.9672 24.7964 20.9008 24.013 19.7081 23.4771C18.5154 22.9412 17.2234 22.665 15.917 22.6667C13.1672 22.6667 10.6972 23.8667 8.99665 25.776M15.917 28C14.3492 28 12.7968 27.6896 11.3483 27.0866C9.89988 26.4835 8.5838 25.5996 7.47521 24.4853C6.36662 23.371 5.48724 22.0481 4.88728 20.5922C4.28731 19.1363 3.97852 17.5759 3.97852 16C3.97852 14.4241 4.28731 12.8637 4.88728 11.4078C5.48724 9.95189 6.36662 8.62902 7.47521 7.51472C8.5838 6.40042 9.89988 5.5165 11.3483 4.91345C12.7968 4.31039 14.3492 4 15.917 4C19.0833 4 22.1198 5.26428 24.3587 7.51472C26.5976 9.76516 27.8554 12.8174 27.8554 16C27.8554 19.1826 26.5976 22.2348 24.3587 24.4853C22.1198 26.7357 19.0833 28 15.917 28ZM15.917 18.6667C15.3944 18.6667 14.8769 18.5632 14.3941 18.3622C13.9113 18.1612 13.4726 17.8665 13.1031 17.4951C12.7335 17.1237 12.4404 16.6827 12.2404 16.1974C12.0404 15.7121 11.9375 15.192 11.9375 14.6667C11.9375 14.1414 12.0404 13.6212 12.2404 13.1359C12.4404 12.6506 12.7335 12.2097 13.1031 11.8382C13.4726 11.4668 13.9113 11.1722 14.3941 10.9711C14.8769 10.7701 15.3944 10.6667 15.917 10.6667C16.9724 10.6667 17.9846 11.0881 18.7309 11.8382C19.4772 12.5884 19.8965 13.6058 19.8965 14.6667C19.8965 15.7275 19.4772 16.7449 18.7309 17.4951C17.9846 18.2452 16.9724 18.6667 15.917 18.6667Z" fill="#FFA931" fill-opacity="0.5"/>
<path d="M22.8373 25.776C21.9672 24.7964 20.9008 24.013 19.7081 23.4771C18.5154 22.9412 17.2234 22.665 15.917 22.6667C13.1672 22.6667 10.6972 23.8667 8.99665 25.776M15.917 28C14.3492 28 12.7968 27.6896 11.3483 27.0866C9.89988 26.4835 8.5838 25.5996 7.47521 24.4853C6.36662 23.371 5.48724 22.0481 4.88728 20.5922C4.28731 19.1363 3.97852 17.5759 3.97852 16C3.97852 14.4241 4.28731 12.8637 4.88728 11.4078C5.48724 9.95189 6.36662 8.62902 7.47521 7.51472C8.5838 6.40042 9.89988 5.5165 11.3483 4.91345C12.7968 4.31039 14.3492 4 15.917 4C19.0833 4 22.1198 5.26428 24.3587 7.51472C26.5976 9.76516 27.8554 12.8174 27.8554 16C27.8554 19.1826 26.5976 22.2348 24.3587 24.4853C22.1198 26.7357 19.0833 28 15.917 28ZM15.917 18.6667C15.3944 18.6667 14.8769 18.5632 14.3941 18.3622C13.9113 18.1612 13.4726 17.8665 13.1031 17.4951C12.7335 17.1237 12.4404 16.6827 12.2404 16.1974C12.0404 15.7121 11.9375 15.192 11.9375 14.6667C11.9375 14.1414 12.0404 13.6212 12.2404 13.1359C12.4404 12.6506 12.7335 12.2097 13.1031 11.8382C13.4726 11.4668 13.9113 11.1722 14.3941 10.9711C14.8769 10.7701 15.3944 10.6667 15.917 10.6667C16.9724 10.6667 17.9846 11.0881 18.7309 11.8382C19.4772 12.5884 19.8965 13.6058 19.8965 14.6667C19.8965 15.7275 19.4772 16.7449 18.7309 17.4951C17.9846 18.2452 16.9724 18.6667 15.917 18.6667Z" stroke="#222222" stroke-width="1.5" stroke-linecap="round" stroke-linejoin="round"/>
<path d="M15.747 14.2C15.6732 14.3004 15.5318 14.4662 15.6194 14.6028C15.786 14.8627 16.1246 14.5106 16.2063 14.3695C16.3134 14.1845 16.3983 13.8579 16.3029 13.6478C16.2539 13.5399 16.1041 13.4916 16.0003 13.4637C15.7873 13.4064 15.5123 13.4528 15.3059 13.5129C15.1557 13.5567 14.9737 13.5829 14.8885 13.7207C14.6715 14.0715 14.6215 14.4574 14.7391 14.8525C14.7958 15.043 14.8331 15.2617 14.976 15.4121C15.0725 15.5136 15.2643 15.5343 15.3952 15.5725C15.8411 15.7024 16.2597 15.6838 16.5981 15.3155C16.8826 15.0059 17.0463 14.6729 17.0684 14.2529C17.0753 14.1215 17.0818 13.9641 17.0028 13.8501C16.9491 13.7726 16.8566 13.7148 16.7804 13.6624C16.6532 13.5748 16.5185 13.4932 16.3867 13.4127C16.2958 13.3571 16.2113 13.3013 16.106 13.276C16.0011 13.2507 15.8835 13.256 15.7761 13.2395C15.44 13.1878 15.1105 13.4376 14.9232 13.697C14.8749 13.7638 14.8379 13.8326 14.7719 13.8847C14.7004 13.9411 14.6162 13.9797 14.5459 14.0378C14.4042 14.1549 14.3574 14.3904 14.3527 14.5627C14.3486 14.7113 14.3335 14.8825 14.3673 15.0275C14.3944 15.1441 14.4619 15.245 14.5222 15.3465C14.5852 15.4525 14.6443 15.5861 14.7391 15.6691C14.8275 15.7465 14.9419 15.7928 15.0343 15.8659C15.1232 15.9361 15.202 15.9947 15.3004 16.0536C15.4806 16.1614 15.6751 16.1833 15.8837 16.1849C16.2625 16.1878 16.6124 16.0942 16.9135 15.8495C17.0443 15.7431 17.1279 15.5916 17.2288 15.4595C17.3141 15.3475 17.4075 15.2527 17.5131 15.1605C17.6786 15.0161 17.7869 14.8469 17.7573 14.6174C17.7396 14.4802 17.6091 14.4018 17.524 14.3039C17.3969 14.1576 17.2777 13.9973 17.185 13.8264C17.1265 13.7186 17.0963 13.5792 17.0064 13.491C16.9263 13.4125 16.8099 13.3543 16.7148 13.2942C16.4707 13.14 16.1475 13.062 15.8563 13.0682C15.7762 13.0699 15.6988 13.1027 15.6212 13.1192C15.5459 13.1352 15.4658 13.1309 15.3916 13.1502C15.2443 13.1885 15.1371 13.3296 15.0198 13.4181C14.936 13.4813 14.8687 13.5534 14.7737 13.604C14.6136 13.6894 14.5685 13.7874 14.5149 13.9613C14.4187 14.2733 14.3585 14.6017 14.2688 14.9163C14.1861 15.2068 14.277 15.5336 14.4475 15.7748C14.5817 15.9648 14.8301 16.1153 15.0143 16.2505C15.1356 16.3395 15.254 16.4014 15.3916 16.4619C15.6284 16.566 15.9473 16.6484 16.1972 16.5312C16.4749 16.4008 16.7418 16.2072 16.9973 16.039C17.235 15.8826 17.3992 15.7205 17.535 15.4686C17.5949 15.3574 17.6525 15.2357 17.6462 15.1059C17.6399 14.9772 17.5726 14.8576 17.5331 14.7377C17.4869 14.5973 17.467 14.4526 17.4329 14.3094C17.4064 14.1983 17.3666 14.091 17.3418 13.9795C17.3062 13.82 17.2794 13.6403 17.2725 13.4764C17.2715 13.4533 17.2753 13.4236 17.2488 13.4127C17.2137 13.3981 17.2563 13.4903 17.2743 13.5238C17.3734 13.7083 17.5002 13.8831 17.5751 14.0779C17.5817 14.0952 17.6734 14.2028 17.5933 14.1672C17.4312 14.0952 17.3483 13.8238 17.2434 13.6897C17.1376 13.5547 16.9616 13.4561 16.8898 13.2978C16.8507 13.2118 16.8455 13.058 16.7512 13.0099C16.6701 12.9684 16.6116 12.9405 16.5216 12.9205C16.4012 12.8938 16.3118 12.8688 16.1862 12.875C15.9331 12.8875 15.6905 12.9473 15.4462 13.0135C15.3253 13.0462 15.1939 13.0774 15.0854 13.1429C15.059 13.1588 15.044 13.1659 15.0125 13.1666C14.9431 13.1682 14.8976 13.1715 14.8338 13.2067C14.6225 13.3236 14.4457 13.5962 14.3891 13.83C14.3374 14.0436 14.2543 14.249 14.2543 14.4716C14.2543 14.534 14.2234 14.5853 14.2214 14.6484C14.2198 14.7011 14.2214 14.7542 14.2214 14.807" stroke="white" stroke-opacity="0.5" stroke-width="3" stroke-linecap="round"/>
<path d="M16.1256 13.5927C15.8559 13.6204 15.6908 13.6899 15.546 13.928C15.4495 14.0868 15.223 14.3981 15.3856 14.5787C15.6907 14.9175 16.1677 14.5163 16.2605 14.1941C16.3283 13.9586 16.2073 13.6141 15.9233 13.6127C15.6056 13.6112 15.2645 13.8902 15.2198 14.2051C15.1931 14.3925 15.2247 14.6191 15.361 14.761C15.4997 14.9053 15.7402 14.9786 15.9324 15.007C16.2514 15.0541 16.539 14.6803 16.5576 14.3837C16.5741 14.1194 16.3276 13.8115 16.0983 13.702C15.4443 13.3899 14.8454 14.1111 14.8006 14.7081C14.776 15.036 15.0165 15.2573 15.3091 15.3497C15.764 15.4933 16.2739 15.3059 16.6104 14.9924C16.7876 14.8274 16.9864 14.588 16.9804 14.329C16.9744 14.0683 16.7996 13.8118 16.6323 13.6255C16.4264 13.3961 16.054 13.3952 15.7884 13.5234C15.6032 13.6129 15.3845 13.7547 15.3273 13.9627C15.2469 14.2551 15.1658 14.6156 15.2918 14.9059C15.3756 15.0992 15.5519 15.3828 15.7857 15.4044C16.003 15.4244 16.2443 15.4035 16.4591 15.3716C16.6342 15.3455 16.687 15.3104 16.7335 15.1455C16.8164 14.8516 16.9157 14.4428 16.7854 14.1486C16.7051 13.9672 16.5189 13.7934 16.3571 13.6802C16.157 13.5401 15.7705 13.6335 15.5715 13.7157C15.2061 13.8667 14.8419 14.2506 14.8288 14.6644C14.8183 14.9979 14.9755 15.2842 15.2444 15.4727C15.3947 15.5781 15.546 15.6767 15.7328 15.6887C16.0704 15.7103 16.3944 15.6136 16.7161 15.5247C16.9955 15.4474 17.198 15.339 17.3431 15.0745C17.4662 14.8501 17.3791 14.6298 17.2593 14.422C17.1333 14.2035 16.9627 13.9117 16.7335 13.7904C16.5635 13.7006 16.3955 13.6622 16.2049 13.6592C16.1133 13.6578 15.9998 13.6428 15.9087 13.6583C15.7891 13.6786 15.6759 13.8075 15.5943 13.8816C15.5097 13.9584 15.3838 14.0536 15.3273 14.1595C15.2818 14.2447 15.2658 14.3624 15.2498 14.4548C15.2149 14.6568 15.1906 14.8637 15.1906 15.069" stroke="white" stroke-opacity="0.5" stroke-width="3" stroke-linecap="round"/>
<path d="M15.9548 24.6978C16.1379 24.7525 16.3194 24.8113 16.4975 24.8811C16.6603 24.9448 16.743 24.9575 16.5328 25.0256C16.0498 25.182 15.5118 25.3704 15.123 25.7093C14.7553 26.0298 15.1066 26.2361 15.4508 26.2133C16.2268 26.1619 15.9122 25.2015 15.2604 25.3886C15.0553 25.4475 14.6869 25.6369 15.0208 25.8327C15.3219 26.0092 15.7466 26.0885 16.0922 26.0582C16.179 26.0506 16.608 25.966 16.3601 25.808C16.1078 25.6473 15.7432 25.6206 15.4543 25.6001C15.1545 25.5787 14.8579 25.6189 14.5591 25.6353C14.2838 25.6504 14.0056 25.6403 13.7344 25.6952C13.2762 25.788 12.7333 25.8413 12.2682 25.7622C12.0069 25.7177 11.7581 25.6025 11.4928 25.5877C11.2683 25.5752 11.041 25.586 10.8162 25.586C10.4222 25.586 10.9593 25.5961 11.0699 25.5754C11.3872 25.5159 11.661 25.233 11.9457 25.089C12.0893 25.0164 12.2319 24.8848 12.3845 24.8353C12.4708 24.8073 12.5568 24.8273 12.6418 24.7859C13.1916 24.5184 13.6786 24.2854 14.3036 24.2854C14.5596 24.2854 14.816 24.2812 15.0719 24.2872C15.1973 24.2902 15.2312 24.2864 15.0772 24.3224C8.91136 25.7645 23.4257 22.351 14.2366 24.5092C14.123 24.5359 12.505 24.7811 12.8956 25.297C13.1057 25.5745 13.6692 25.5521 13.9705 25.5648C14.0539 25.5683 14.6983 25.5327 14.1432 25.5824C13.5347 25.6369 12.9453 25.6542 12.3387 25.6494C12.2719 25.6489 12.0265 25.6092 11.9722 25.6635C11.909 25.7267 12.1185 25.9382 12.1413 25.9595C12.405 26.2054 12.7363 26.2812 13.0718 26.3719C13.2258 26.4135 13.3653 26.4868 13.5159 26.5375C13.9161 26.6723 14.3449 26.6966 14.7635 26.7138C15.8965 26.7602 17.035 26.7672 18.1505 26.5516C18.7536 26.4351 19.403 26.4324 19.9902 26.245C20.2252 26.17 20.4179 26.0558 20.674 26.0336C20.8321 26.0198 20.9987 26.0526 21.155 26.0265C21.2757 26.0064 21.4282 25.8106 21.2396 25.7763C20.417 25.6267 19.6659 25.2397 19.014 24.7154C18.7618 24.5127 18.5509 24.2935 18.2668 24.1304C18.1196 24.0459 17.9893 23.9379 17.8192 23.9013C17.6202 23.8585 17.4111 23.8775 17.2095 23.859C16.494 23.7933 15.7132 23.6565 14.9961 23.7603C14.7444 23.7967 14.4484 23.872 14.2348 24.0141C14.1404 24.0769 13.9792 24.2358 13.967 24.3595C13.9146 24.8895 14.772 25.0205 15.0789 25.0661C15.7093 25.1598 16.2641 25.1343 16.894 25.0749C17.2013 25.046 17.5584 25.0816 17.8016 24.8916C17.9019 24.8133 17.5899 24.7433 17.4685 24.7048C17.1886 24.6162 16.907 24.5345 16.6156 24.4916C16.3979 24.4596 15.5859 24.4221 15.8208 24.911C15.9452 25.1697 16.2293 25.2761 16.4764 25.3674C16.942 25.5395 17.4719 25.6379 17.9566 25.7216C18.3684 25.7928 18.8067 25.8564 19.2272 25.8785C19.3233 25.8835 19.593 25.8757 19.5109 25.8256C19.1519 25.6066 18.5698 25.5811 18.161 25.5366C17.8211 25.4996 17.5654 25.656 17.2711 25.8168C17.1365 25.8904 16.49 26.165 16.9293 26.3085C17.1659 26.3857 17.4571 26.432 17.7046 26.3878C17.9361 26.3464 18.4131 26.2209 18.547 26.0018C18.6329 25.8612 18.2519 25.6158 18.1769 25.5472C17.993 25.3788 18.0316 25.2839 18.2315 25.1472C18.3193 25.0871 18.5399 24.9198 18.6615 24.978C18.8954 25.0898 19.057 25.2948 19.31 25.3939C19.6318 25.5199 19.9953 25.5601 20.3356 25.5965C20.3435 25.5974 21.1775 25.6707 21.0793 25.5789C20.907 25.4178 20.6065 25.3137 20.3955 25.2053C20.1618 25.0853 19.9263 24.9606 19.6836 24.8599C19.2785 24.6919 18.8555 24.5763 18.436 24.4511C18.0272 24.3291 17.6212 24.1904 17.2024 24.1057C16.6666 23.9973 16.0486 24.0393 15.5107 24.0846C15.118 24.1176 14.707 24.1756 14.323 24.2643C13.8741 24.368 13.5133 24.6827 13.1423 24.9375C12.9133 25.0947 12.6131 25.3413 12.3458 25.445C12.1862 25.5068 11.9356 25.4591 11.7677 25.4591C11.4786 25.4591 11.0804 25.3704 10.8197 25.5225C10.7222 25.5794 10.821 25.6008 10.8884 25.6265C11.095 25.7052 11.2997 25.7937 11.5105 25.8609C11.7244 25.9291 11.9467 26.0244 12.1642 26.0741C12.6348 26.1815 13.1269 26.1569 13.6057 26.1569C14.2238 26.1569 14.8435 26.1436 15.4613 26.1604C15.4765 26.1608 15.9897 26.2095 15.597 26.2151C14.8839 26.2253 14.1469 26.1844 13.4542 26.0054C13.0852 25.91 12.7912 25.7157 12.4532 25.556C12.2284 25.4497 11.9844 25.3868 11.7625 25.2758C11.6851 25.2371 11.6442 25.1419 11.551 25.1419C11.4445 25.1419 11.7632 25.1213 11.8682 25.1031C12.0732 25.0676 12.2444 24.9996 12.4286 24.9075C12.7026 24.7705 12.9322 24.6093 13.2198 24.4934C13.3427 24.4438 13.9923 24.2333 13.9811 24.0705C13.971 23.9236 13.3224 24.3307 13.2551 24.3736C12.8674 24.62 12.4688 24.8549 12.0145 24.941C11.8663 24.9691 11.7216 25.0008 11.5845 25.0643C11.5526 25.0791 11.4484 25.0677 11.4805 25.082C12.1479 25.3786 12.7367 24.7825 13.2832 24.5092C13.6736 24.3141 14.1331 24.2535 14.5573 24.1762C15.0056 24.0945 15.4513 24.0453 15.9037 23.9982C16.3229 23.9545 16.7061 23.9064 17.1284 23.9365" stroke="white" stroke-opacity="0.5" stroke-linecap="round"/>
<path d="M12.4019 25.6179C12.986 25.8999 13.6631 26.0498 14.3051 26.1148C14.9677 26.182 15.6421 26.1846 16.307 26.2206C16.793 26.2468 17.196 26.2754 17.6833 26.2593C18.0853 26.2461 18.5531 26.2245 18.9151 26.0162C19.0716 25.926 19.1218 25.7623 19.2076 25.6179C19.2614 25.5273 19.4494 25.4457 19.4701 25.35C19.5397 25.03 16.2114 25.0536 15.8506 25.0399C15.3259 25.0199 14.805 24.9497 14.2804 24.9271C14.0738 24.9182 13.3189 24.8494 13.9809 25.0787C15.104 25.4676 16.3124 25.5965 17.4965 25.5456C17.5925 25.5415 17.6949 25.5561 17.7837 25.5192C17.8125 25.5072 17.7461 25.4646 17.7167 25.454C17.0679 25.2203 16.2865 25.17 15.6091 25.1139C14.7738 25.0447 13.9418 25.0675 13.1068 25.1174C13.0529 25.1207 12.0643 25.1263 12.1746 25.3218C12.2901 25.5266 12.6922 25.6015 12.8953 25.6637C13.4227 25.8253 13.9528 25.8801 14.5025 25.8999C16.0515 25.9554 17.5972 25.9985 19.1477 25.9985C19.2503 25.9985 19.6614 26.0568 19.6939 25.8858C19.7737 25.4672 18.8053 25.2176 18.5626 25.1315C18.2081 25.0057 17.8571 24.8686 17.4824 24.8161C16.7626 24.7151 16.045 24.8375 15.3342 24.9483C14.6984 25.0474 12.7699 25.1421 13.4134 25.1421C13.6841 25.1421 13.8546 25.0517 14.0549 24.8707C14.2983 24.6508 14.4941 24.5773 14.8073 24.483C15.1196 24.3891 15.4158 24.2503 15.7413 24.2046C16.0459 24.1619 16.3545 24.2212 16.6453 24.3103C17.2597 24.4987 17.8887 24.795 18.4287 25.1421" stroke="white" stroke-opacity="0.5" stroke-linecap="round"/>
</svg>
