<svg width="32" height="32" viewBox="0 0 32 32" fill="none" xmlns="http://www.w3.org/2000/svg">
<path d="M24.7619 26.6668H14.1499V19.5557H12.3813V26.6668H7.0753V19.5557H5.30664V26.6668C5.30664 27.1383 5.49298 27.5905 5.82467 27.9239C6.15636 28.2573 6.60622 28.4446 7.0753 28.4446H24.7619C25.231 28.4446 25.6809 28.2573 26.0125 27.9239C26.3442 27.5905 26.5306 27.1383 26.5306 26.6668V19.5557H24.7619V26.6668Z" fill="#222222"/>
<path d="M29.8824 11.7957L26.2743 4.54233C26.1279 4.24614 25.9022 3.99688 25.6226 3.82258C25.3429 3.64828 25.0204 3.55584 24.6914 3.55566H7.14627C6.81723 3.55584 6.49476 3.64828 6.21511 3.82258C5.93547 3.99688 5.70975 4.24614 5.56332 4.54233L1.95525 11.7957C1.83206 12.0441 1.76846 12.3181 1.76954 12.5957V15.3334C1.76874 15.7488 1.91266 16.1514 2.17634 16.4712C2.56602 16.9202 3.04731 17.2796 3.58749 17.5251C4.12767 17.7705 4.71408 17.8961 5.30687 17.8934C6.27412 17.895 7.21188 17.5588 7.95986 16.9423C8.70783 17.5591 9.64538 17.8962 10.6128 17.8962C11.5803 17.8962 12.5179 17.5591 13.2658 16.9423C14.0138 17.5591 14.9514 17.8962 15.9188 17.8962C16.8863 17.8962 17.8238 17.5591 18.5718 16.9423C19.3198 17.5591 20.2573 17.8962 21.2248 17.8962C22.1923 17.8962 23.1298 17.5591 23.8778 16.9423C24.7128 17.6314 25.781 17.9683 26.8579 17.8821C27.9348 17.7959 28.9366 17.2933 29.6525 16.4801C29.9193 16.1615 30.0664 15.7588 30.0681 15.3423V12.5957C30.0692 12.3181 30.0056 12.0441 29.8824 11.7957ZM26.5308 16.1157C26.1531 16.1148 25.781 16.0231 25.4457 15.8484C25.1104 15.6737 24.8214 15.4209 24.603 15.1112L23.8778 14.1157L23.1615 15.1112C22.9389 15.4162 22.648 15.6642 22.3123 15.8351C21.9766 16.0061 21.6055 16.0951 21.2292 16.0951C20.8529 16.0951 20.4819 16.0061 20.1462 15.8351C19.8105 15.6642 19.5196 15.4162 19.297 15.1112L18.5718 14.1157L17.8555 15.1112C17.6329 15.4162 17.342 15.6642 17.0063 15.8351C16.6706 16.0061 16.2996 16.0951 15.9233 16.0951C15.5469 16.0951 15.1759 16.0061 14.8402 15.8351C14.5045 15.6642 14.2136 15.4162 13.991 15.1112L13.2658 14.1157L12.5495 15.1112C12.3269 15.4162 12.036 15.6642 11.7003 15.8351C11.3646 16.0061 10.9936 16.0951 10.6173 16.0951C10.241 16.0951 9.86993 16.0061 9.53424 15.8351C9.19854 15.6642 8.90761 15.4162 8.68501 15.1112L7.95986 14.1157L7.23471 15.1112C7.01625 15.4209 6.72731 15.6737 6.39196 15.8484C6.05662 16.0231 5.68458 16.1148 5.30687 16.1157C4.97359 16.1197 4.64332 16.052 4.33825 15.9171C4.03317 15.7822 3.76038 15.5832 3.53821 15.3334V12.5957L7.14627 5.33344H24.6914L28.2995 12.5868V15.3068C28.0786 15.56 27.8067 15.7631 27.5017 15.9026C27.1968 16.042 26.8658 16.1147 26.5308 16.1157Z" fill="#222222"/>
</svg>
