<svg width="32" height="32" viewBox="0 0 32 32" fill="none" xmlns="http://www.w3.org/2000/svg">
<path d="M22.8373 25.776C21.9672 24.7964 20.9008 24.013 19.7081 23.4771C18.5154 22.9412 17.2234 22.665 15.917 22.6667C13.1672 22.6667 10.6972 23.8667 8.99665 25.776M15.917 28C14.3492 28 12.7968 27.6896 11.3483 27.0866C9.89988 26.4835 8.5838 25.5996 7.47521 24.4853C6.36662 23.371 5.48724 22.0481 4.88728 20.5922C4.28731 19.1363 3.97852 17.5759 3.97852 16C3.97852 14.4241 4.28731 12.8637 4.88728 11.4078C5.48724 9.95189 6.36662 8.62902 7.47521 7.51472C8.5838 6.40042 9.89988 5.5165 11.3483 4.91345C12.7968 4.31039 14.3492 4 15.917 4C19.0833 4 22.1198 5.26428 24.3587 7.51472C26.5976 9.76516 27.8554 12.8174 27.8554 16C27.8554 19.1826 26.5976 22.2348 24.3587 24.4853C22.1198 26.7357 19.0833 28 15.917 28ZM15.917 18.6667C15.3944 18.6667 14.8769 18.5632 14.3941 18.3622C13.9113 18.1612 13.4726 17.8665 13.1031 17.4951C12.7335 17.1237 12.4404 16.6827 12.2404 16.1974C12.0404 15.7121 11.9375 15.192 11.9375 14.6667C11.9375 14.1414 12.0404 13.6212 12.2404 13.1359C12.4404 12.6506 12.7335 12.2097 13.1031 11.8382C13.4726 11.4668 13.9113 11.1722 14.3941 10.9711C14.8769 10.7701 15.3944 10.6667 15.917 10.6667C16.9724 10.6667 17.9846 11.0881 18.7309 11.8382C19.4772 12.5884 19.8965 13.6058 19.8965 14.6667C19.8965 15.7275 19.4772 16.7449 18.7309 17.4951C17.9846 18.2452 16.9724 18.6667 15.917 18.6667Z" stroke="#222222" stroke-width="1.5" stroke-linecap="round" stroke-linejoin="round"/>
</svg>
