<svg width="32" height="30" viewBox="0 0 32 30" fill="none" xmlns="http://www.w3.org/2000/svg">
<path d="M29.35 11.7513V11.7517C29.35 11.7938 29.3384 11.8378 29.3126 11.8797C29.2866 11.922 29.2459 11.9622 29.1906 11.9921C28.6373 12.2909 28.1725 12.724 27.847 13.2518C27.5211 13.7802 27.3476 14.3833 27.3476 15C27.3476 15.6167 27.5211 16.2198 27.847 16.7482C28.1725 17.276 28.6373 17.7091 29.1906 18.0079C29.2459 18.0378 29.2866 18.078 29.3126 18.1203C29.3384 18.1622 29.35 18.2062 29.35 18.2483V18.2487V22.0312C29.35 22.9271 28.5612 23.725 27.5 23.725H23.0498C23.0848 23.6972 23.1188 23.6679 23.1517 23.6371C23.4653 23.3431 23.65 22.9351 23.65 22.5V21.5625C23.65 21.1274 23.4653 20.7194 23.1517 20.4254C22.8395 20.1327 22.4246 19.975 22 19.975C21.5754 19.975 21.1605 20.1327 20.8483 20.4254C20.5347 20.7194 20.35 21.1274 20.35 21.5625V22.5C20.35 22.9351 20.5347 23.3431 20.8483 23.6371C20.8812 23.6679 20.9152 23.6972 20.9502 23.725H4.5C3.9963 23.725 3.521 23.537 3.1768 23.2143C2.83401 22.893 2.65 22.4664 2.65 22.0312L2.65 18.2487L2.65 18.2478C2.64994 18.2057 2.66152 18.1618 2.68722 18.1199C2.71316 18.0776 2.75373 18.0374 2.80892 18.0074L2.49871 17.4363L2.80743 18.0082C3.361 17.7094 3.82606 17.2762 4.15167 16.7482C4.47752 16.2198 4.65103 15.6167 4.65103 15C4.65103 14.3833 4.47752 13.7802 4.15167 13.2518C3.8262 12.724 3.36142 12.291 2.80818 11.9922C2.75336 11.9622 2.71305 11.9222 2.68722 11.8801C2.66152 11.8382 2.64994 11.7943 2.65 11.7522V11.7513V7.96875C2.65 7.07183 3.4386 6.275 4.5 6.275H20.9502C20.9152 6.30278 20.8812 6.33209 20.8483 6.36289C20.5347 6.65688 20.35 7.06494 20.35 7.5V8.4375C20.35 8.87256 20.5347 9.28062 20.8483 9.57461C21.1605 9.86728 21.5754 10.025 22 10.025C22.4246 10.025 22.8395 9.86728 23.1517 9.57461C23.4653 9.28061 23.65 8.87256 23.65 8.4375V7.5C23.65 7.06494 23.4653 6.65689 23.1517 6.36289C23.1188 6.33209 23.0848 6.30278 23.0498 6.275H27.5C28.5612 6.275 29.35 7.07286 29.35 7.96875V11.7513ZM23.65 12.1875C23.65 11.7524 23.4653 11.3444 23.1517 11.0504C22.8395 10.7577 22.4246 10.6 22 10.6C21.5754 10.6 21.1605 10.7577 20.8483 11.0504C20.5347 11.3444 20.35 11.7524 20.35 12.1875V13.125C20.35 13.5601 20.5347 13.9681 20.8483 14.2621C21.1605 14.5548 21.5754 14.7125 22 14.7125C22.4246 14.7125 22.8395 14.5548 23.1517 14.2621C23.4653 13.9681 23.65 13.5601 23.65 13.125V12.1875ZM23.1517 15.7379C22.8395 15.4452 22.4246 15.2875 22 15.2875C21.5754 15.2875 21.1605 15.4452 20.8483 15.7379C20.5347 16.0319 20.35 16.4399 20.35 16.875V17.8125C20.35 18.2476 20.5347 18.6556 20.8483 18.9496C21.1605 19.2423 21.5754 19.4 22 19.4C22.4246 19.4 22.8395 19.2423 23.1517 18.9496C23.4653 18.6556 23.65 18.2476 23.65 17.8125V16.875C23.65 16.4399 23.4653 16.0319 23.1517 15.7379ZM7.84833 13.8629C7.53474 14.1569 7.35 14.5649 7.35 15C7.35 15.4351 7.53474 15.8431 7.84833 16.1371C8.16051 16.4298 8.57544 16.5875 9 16.5875H16C16.4246 16.5875 16.8395 16.4298 17.1517 16.1371C17.4653 15.8431 17.65 15.4351 17.65 15C17.65 14.5649 17.4653 14.1569 17.1517 13.8629C16.8395 13.5702 16.4246 13.4125 16 13.4125H9C8.57544 13.4125 8.16051 13.5702 7.84833 13.8629ZM9 17.1625C8.57544 17.1625 8.16051 17.3202 7.84833 17.6129C7.53474 17.9069 7.35 18.3149 7.35 18.75C7.35 19.1851 7.53474 19.5931 7.84833 19.8871C8.16051 20.1798 8.57544 20.3375 9 20.3375H13C13.4246 20.3375 13.8395 20.1798 14.1517 19.8871C14.4653 19.5931 14.65 19.1851 14.65 18.75C14.65 18.3149 14.4653 17.9069 14.1517 17.6129C13.8395 17.3202 13.4246 17.1625 13 17.1625H9Z" fill="white" stroke="black" stroke-width="1.3"/>
</svg>
