<svg width="18" height="18" viewBox="0 0 18 18" fill="none" xmlns="http://www.w3.org/2000/svg">
<path d="M12.5014 11.4282H11.7114L11.4314 11.1582C12.0564 10.4322 12.5131 9.57697 12.769 8.65381C13.0248 7.73065 13.0735 6.76235 12.9114 5.8182C12.4414 3.0382 10.1214 0.818197 7.32144 0.478197C6.33706 0.353663 5.33723 0.455969 4.39846 0.777286C3.4597 1.0986 2.60688 1.63042 1.90527 2.33203C1.20366 3.03364 0.671846 3.88646 0.350529 4.82522C0.0292113 5.76399 -0.0730946 6.76381 0.0514397 7.7482C0.39144 10.5482 2.61144 12.8682 5.39144 13.3382C6.33559 13.5002 7.30389 13.4516 8.22705 13.1957C9.15021 12.9399 10.0054 12.4831 10.7314 11.8582L11.0014 12.1382V12.9282L15.2514 17.1782C15.6614 17.5882 16.3314 17.5882 16.7414 17.1782C17.1514 16.7682 17.1514 16.0982 16.7414 15.6882L12.5014 11.4282ZM6.50144 11.4282C4.01144 11.4282 2.00144 9.4182 2.00144 6.9282C2.00144 4.4382 4.01144 2.4282 6.50144 2.4282C8.99144 2.4282 11.0014 4.4382 11.0014 6.9282C11.0014 9.4182 8.99144 11.4282 6.50144 11.4282Z" fill="black"/>
</svg>
