<svg width="14" height="13" viewBox="0 0 14 13" fill="none" xmlns="http://www.w3.org/2000/svg">
<path d="M8.22037 1.38364L9.30603 3.55496C9.45407 3.85722 9.84886 4.14714 10.182 4.20265L12.1497 4.52958C13.4081 4.73931 13.7042 5.65225 12.7974 6.55286L11.2676 8.08265C11.0085 8.34173 10.8667 8.84138 10.9469 9.19915L11.3848 11.0929C11.7303 12.5918 10.9345 13.1717 9.60828 12.3883L7.7639 11.2964C7.4308 11.0991 6.8818 11.0991 6.54253 11.2964L4.69814 12.3883C3.37808 13.1717 2.57617 12.5857 2.92161 11.0929L3.35957 9.19915C3.43976 8.84138 3.29789 8.34173 3.03881 8.08265L1.50902 6.55286C0.608413 5.65225 0.898334 4.73931 2.15671 4.52958L4.12447 4.20265C4.4514 4.14714 4.84619 3.85722 4.99423 3.55496L6.07989 1.38364C6.67207 0.205453 7.63436 0.205453 8.22037 1.38364Z" fill="#FF6666"/>
</svg>
